<svg xmlns="http://www.w3.org/2000/svg" viewBox="0 0 96 96" role="img" aria-labelledby="title">
  <title>Charles Schwab logo</title>
  <rect width="96" height="96" rx="24" fill="#1c9cd8" />
  <path
    d="M48 28c-11 0-20 9-20 20s9 20 20 20 20-9 20-20-9-20-20-20Zm9.5 14.5c2 1.9 3.1 4.5 3.1 7.5 0 6-4.6 10.4-10.6 10.4-3.1 0-5.5-1-7.5-3l3.2-3.5c1.2 1.2 2.5 1.8 4.3 1.8 3.1 0 5.2-2.2 5.2-5.7 0-1.8-.5-3.1-1.6-4.1-1-.9-2.3-1.4-4-1.4h-2.4v-4.4l6.6-9.2h-11.6v-4.8h18.8v4.1L48 42.2v.3c3.5-.1 6.4 1.1 8.5 3Z"
    fill="#f8fdff"
  />
</svg>
